<?xml version="1.0" encoding="iso-8859-1"?>
<!-- Generator: Adobe Illustrator 21.0.0, SVG Export Plug-In . SVG Version: 6.00 Build 0)  -->
<svg version="1.1" id="Capa_1" xmlns="http://www.w3.org/2000/svg" xmlns:xlink="http://www.w3.org/1999/xlink" x="0px" y="0px"
	 viewBox="0 0 512 512" style="enable-background:new 0 0 512 512;" xml:space="preserve">
<g transform="translate(-1)">
	<g transform="translate(1)">
		<path style="fill:#2E7D32;" d="M408.897,441.088v41.728c0,9.426-7.641,17.067-17.067,17.067H215.19
			c-4.713,0-8.533-3.821-8.533-8.533v-58.795c0-4.713,3.821-8.533,8.533-8.533h176.64
			C401.255,424.021,408.897,431.662,408.897,441.088z"/>
		<path style="fill:#4CAF50;" d="M383.297,441.088v41.728c-0.028,9.414-7.653,17.039-17.067,17.067H215.19
			c-4.713,0-8.533-3.821-8.533-8.533v-58.795c0-4.713,3.821-8.533,8.533-8.533h151.04
			C375.644,424.049,383.268,431.674,383.297,441.088z"/>
		<path style="fill:#8BC34A;" d="M392.077,424.021V376.32l92.442-92.433c13.17-13.172,13.168-34.527-0.004-47.697
			c-13.172-13.17-34.527-13.168-47.697,0.004l-30.353,30.362c-2.413,2.409-6.04,3.127-9.189,1.82
			c-3.149-1.307-5.201-4.383-5.198-7.793V70.11c-0.008-7.023-2.934-13.728-8.078-18.509s-12.044-7.211-19.049-6.707
			c-13.55,1.445-23.743,13.017-23.467,26.641V37.402c0.168-9.142-4.613-17.663-12.504-22.283s-17.661-4.62-25.552,0
			s-12.672,13.141-12.504,22.283V70.11c0.168-9.142-4.613-17.663-12.504-22.283s-17.661-4.62-25.552,0
			c-7.891,4.62-12.672,13.141-12.504,22.283v58.982c0-6.989-2.867,26.837-7.415,22.289c-5.186-5.206-12.384-7.892-19.712-7.356
			c-13.523,1.478-23.678,13.04-23.398,26.641v123.537c0.005,13.442,2.018,26.808,5.973,39.654l27.733,90.163H392.077z"/>
		<path style="fill:#802D40;" d="M282.552,424.047l-59.008-0.051l-27.767-90.103c-3.961-12.847-5.955-26.219-5.914-39.663v-21.7
			c18.922-0.158,37.436,5.501,53.035,16.213C289.37,320.734,282.313,374.562,282.552,424.047z"/>
		<path style="fill:#2E7D32;" d="M334.23,442.539l-18.432,6.656l-147.627,53.76c-4.43,1.6-9.319-0.691-10.923-5.12l-20.053-55.211
			c-1.24-3.338-0.249-7.094,2.475-9.387c0.735-0.688,1.607-1.212,2.56-1.536l166.059-60.416c4.243-1.556,8.931-1.359,13.029,0.546
			c4.098,1.905,7.27,5.362,8.816,9.609l14.251,39.168C347.604,429.467,343.068,439.263,334.23,442.539z"/>
		<path style="fill:#4CAF50;" d="M315.798,449.195l-147.627,53.76c-4.43,1.6-9.319-0.691-10.923-5.12l-20.053-55.211
			c-1.24-3.338-0.249-7.094,2.475-9.387l146.688-53.419c8.859-3.22,18.655,1.316,21.931,10.155l14.251,39.253
			C325.292,436.639,322.481,444.967,315.798,449.195z"/>
		<path style="fill:#8BC34A;" d="M308.459,371.2l-16.316-44.817l55.245-118.485c5.265-10.945,4.238-23.875-2.689-33.851
			c-6.926-9.976-18.682-15.458-30.776-14.351c-12.094,1.107-22.659,8.632-27.659,19.7l-18.167,38.895
			c-1.444,3.086-4.603,4.999-8.006,4.85c-3.403-0.149-6.382-2.332-7.55-5.532L187.405,38.613
			c-2.41-6.601-7.456-11.903-13.929-14.636s-13.792-2.653-20.204,0.223c-12.214,6.005-17.815,20.348-12.902,33.041l42.761,117.436
			L139.9,55.902l-11.187-30.72c-2.985-8.623-10.387-14.967-19.365-16.599s-18.139,1.703-23.967,8.724
			c-5.829,7.021-7.42,16.639-4.164,25.164l11.179,30.72L135.617,192L92.387,73.199c-2.952-8.66-10.355-15.049-19.353-16.703
			c-8.999-1.654-18.189,1.684-24.029,8.728s-7.416,16.694-4.123,25.23l20.173,55.467l31.701,87.1l-31.701-87.1
			c-2.412-6.599-7.458-11.899-13.931-14.633s-13.79-2.654-20.202,0.22c-12.221,5.999-17.827,20.346-12.911,33.041l56.004,153.813
			c4.593,12.627,11.048,24.497,19.149,35.217l56.909,75.247L308.459,371.2z"/>
		<path style="fill:#FFEB3A;" d="M205.547,408.661L150.081,428.8l-56.917-75.179c-8.113-10.716-14.558-22.598-19.115-35.243
			l-7.424-20.395c17.727-6.619,37.06-7.632,55.381-2.901C176.619,309.248,188.395,362.24,205.547,408.661z"/>
		<g>
			<path style="fill:#558B30;" d="M253.931,219.989l-2.901,6.315c-1.457,3.062-4.604,4.955-7.992,4.806
				c-3.387-0.149-6.357-2.311-7.539-5.488L170.305,46.592c-2.268-6.307-6.971-11.44-13.056-14.251
				c-3.698-1.749-7.777-2.542-11.861-2.304c2.174-2.508,4.887-4.491,7.936-5.803c6.387-2.902,13.695-3.004,20.161-0.281
				c6.465,2.722,11.5,8.021,13.887,14.617L252.566,217.6C252.865,218.476,253.328,219.287,253.931,219.989z"/>
			<path style="fill:#558B30;" d="M347.371,207.872L292.16,326.4l16.299,44.8l-17.664,6.4l-15.701-43.264l55.211-118.443
				c7.818-16.899,0.541-36.94-16.299-44.885c-6.01-2.82-12.728-3.771-19.285-2.731c11.989-10.448,29.652-11.085,42.362-1.527
				C349.792,176.309,354.082,193.455,347.371,207.872z"/>
			<path style="fill:#558B30;" d="M392.171,261.035l-5.547,5.547c-2.419,2.407-6.048,3.124-9.201,1.818
				c-3.153-1.306-5.212-4.379-5.22-7.792V70.144c0.005-10.07-5.96-19.184-15.189-23.211c2.485-1.197,5.182-1.893,7.936-2.048
				c7.014-0.507,13.923,1.926,19.071,6.718c5.148,4.791,8.069,11.508,8.065,18.541v190.464
				C392.064,260.756,392.094,260.907,392.171,261.035z"/>
			<path style="fill:#558B30;" d="M494.401,260.011c-0.018,8.958-3.576,17.547-9.899,23.893l-92.416,92.416v47.701h-19.883V376.32
				l92.416-92.416c6.322-6.347,9.88-14.935,9.899-23.893c-0.004-8.936-3.566-17.503-9.899-23.808
				c-3.889-3.894-8.661-6.792-13.909-8.448c10.237-3.121,21.346-1.214,29.956,5.143
				C489.275,239.253,494.369,249.309,494.401,260.011z"/>
		</g>
	</g>
	<g>
		<path d="M66.993,321.28c4.877,13.428,11.734,26.052,20.343,37.453l50.133,66.278c-7.047,4.178-10.131,12.775-7.347,20.48
			l20.087,55.219c1.54,4.262,4.712,7.736,8.816,9.657c4.104,1.921,8.804,2.131,13.063,0.583l25.779-9.387
			c2.671,6.336,8.885,10.45,15.761,10.436h179.627c14.139,0,25.6-11.461,25.6-25.6v-42.837c-0.041-10.957-7.086-20.66-17.493-24.09
			V379.58l91.75-89.259c16.382-16.761,16.226-43.583-0.348-60.153c-16.575-16.57-43.397-16.718-60.153-0.331l-30.822,30.857V67.328
			c-0.002-9.496-3.96-18.563-10.922-25.021c-6.963-6.458-16.301-9.723-25.771-9.01c-5.185,0.403-10.197,2.051-14.609,4.804v-3.883
			C350.487,15.32,335.167,0,316.269,0S282.05,15.32,282.05,34.219v3.712c-5.167-3.067-11.058-4.702-17.067-4.736
			c-18.865,0-34.172,15.268-34.219,34.133v62.737l-34.338-94.379c-3.224-8.82-9.967-15.904-18.618-19.559
			c-8.65-3.655-18.43-3.553-27.002,0.282c-4.625,2.114-8.679,5.3-11.827,9.293l-1.254-3.413c-3.078-8.42-9.36-15.281-17.476-19.089
			c-12.392-5.797-27.057-3.552-37.147,5.686S69.485,32.535,74.17,45.389l1.22,3.251c-5.792-1.066-11.762-0.58-17.306,1.408
			C40.529,56.439,31.47,75.844,37.843,93.406l10.24,27.981c-6.628-1.208-13.466-0.397-19.627,2.33
			c-16.338,7.8-23.933,26.85-17.442,43.75L66.993,321.28z M83.07,315.443l-4.352-11.947c13.811-3.64,28.323-3.699,42.163-0.171
			c43.674,11.332,57.233,50.125,71.586,91.204c1.058,3.029,2.142,5.973,3.209,9.02l-41.54,15.121l-53.146-70.229
			C93.407,338.395,87.367,327.273,83.07,315.443z M166.287,494.933l-20.07-55.245l7.569-2.756l158.413-57.66
			c0.932-0.34,1.917-0.514,2.91-0.512c3.592-0.005,6.802,2.24,8.03,5.615l14.225,39.185c0.774,2.13,0.669,4.479-0.291,6.532
			s-2.698,3.638-4.829,4.408L166.287,494.933z M401.807,486.4c0,4.713-3.82,8.533-8.533,8.533H216.139l70.571-25.685h80.947v8.533
			c0,4.713,3.821,8.533,8.533,8.533s8.533-3.82,8.533-8.533v-8.533c-0.033-9.445-7.707-17.081-17.152-17.067H333.6l4.514-1.638
			c7.14-2.629,12.726-8.318,15.223-15.505h39.919c4.713,0,8.533,3.821,8.533,8.533L401.807,486.4z M366.377,50.347
			c4.729-0.356,9.393,1.272,12.873,4.494c3.48,3.221,5.463,7.745,5.474,12.488v193.365c-0.019,6.92,4.142,13.166,10.535,15.815
			c6.393,2.648,13.752,1.175,18.632-3.732l30.78-30.857c10.1-9.538,25.95-9.327,35.794,0.475
			c9.844,9.802,10.121,25.651,0.626,35.792l-94.234,91.674v0.051c-0.849,0.857-1.509,1.884-1.937,3.012
			c-0.38,0.954-0.582,1.969-0.597,2.995v0.06v41.984h-30.848c0-0.077,0-0.162-0.06-0.239l-14.268-39.194
			c-3.721-10.057-13.315-16.729-24.038-16.717l-12.74-34.987l53.76-115.319c6.911-14.629,4.71-31.938-5.641-44.373V68.779
			C350.251,59.461,357.126,51.486,366.377,50.347z M299.134,34.219c0-9.473,7.679-17.152,17.152-17.152s17.152,7.679,17.152,17.152
			v120.32c-11.117-4.438-23.601-3.91-34.304,1.451V34.219z M247.849,67.328c0.015-6.914,4.19-13.139,10.581-15.777
			c6.391-2.638,13.741-1.171,18.629,3.719c3.215,3.187,5.02,7.53,5.009,12.058V171.52c-0.942,1.367-1.797,2.792-2.56,4.267
			l-17.92,38.929l-13.739-37.751V67.328z M35.428,139.29c4.245-1.895,9.087-1.946,13.371-0.139c4.284,1.806,7.627,5.308,9.234,9.671
			l31.701,87.117c0.375,0.973,0.925,1.869,1.621,2.645c0.197,0.207,0.405,0.404,0.623,0.589c0.533,0.505,1.13,0.938,1.775,1.289
			c0.261,0.142,0.528,0.27,0.802,0.384c0.727,0.302,1.495,0.495,2.278,0.572c0.222,0,0.427,0.094,0.657,0.102
			c0.085,0,0.171,0,0.265,0c2.785-0.001,5.395-1.361,6.991-3.644c1.596-2.283,1.978-5.2,1.022-7.817l-31.693-87.057L53.894,87.569
			c-3.149-8.69,1.328-18.289,10.01-21.461c8.689-3.14,18.283,1.329,21.47,10.001l43.23,118.775c0.369,0.974,0.916,1.871,1.613,2.645
			c0.205,0.23,0.435,0.41,0.657,0.623c0.516,0.481,1.089,0.896,1.707,1.237c0.274,0.161,0.56,0.304,0.853,0.427
			c0.681,0.273,1.396,0.453,2.125,0.538c0.273,0,0.521,0.111,0.794,0.119c0.077,0,0.154,0,0.239,0
			c0.993,0.002,1.979-0.174,2.91-0.521c2.129-0.77,3.864-2.355,4.825-4.405c0.96-2.05,1.066-4.398,0.295-6.526l-54.4-149.47
			c-3.149-8.69,1.328-18.289,10.01-21.461c4.17-1.536,8.783-1.33,12.8,0.572c4.018,1.88,7.134,5.268,8.67,9.429l54.383,149.504
			c1.391,3.81,5.272,6.114,9.283,5.512c4.011-0.602,7.044-3.945,7.255-7.995c0.061-1.141-0.114-2.283-0.512-3.354l-9.387-25.737
			l-33.314-91.699c-3.339-8.487,0.271-18.125,8.363-22.332c4.248-1.901,9.095-1.953,13.383-0.144
			c4.288,1.809,7.634,5.316,9.238,9.685l65.152,178.995c2.33,6.455,8.333,10.859,15.189,11.145
			c6.89,0.412,13.311-3.496,16.111-9.805l18.142-38.895c3.467-7.564,10.461-12.914,18.669-14.282
			c8.207-1.368,16.558,1.425,22.291,7.455c7.239,7.48,9.116,18.648,4.719,28.083l-55.262,118.528
			c-0.105,0.326-0.184,0.66-0.239,0.998c-0.281,0.711-0.462,1.458-0.538,2.219c-0.054,1.138,0.12,2.275,0.512,3.345l13.38,36.762
			l-86.844,31.573c-1.041-2.935-2.108-5.854-3.14-8.806c-14.507-41.481-30.916-88.482-83.413-102.093
			c-17.188-4.394-35.228-4.199-52.318,0.563L27.048,161.63C23.712,153.136,27.328,143.494,35.428,139.29z"/>
		<path d="M316.03,413.619c-3.224-8.782-12.934-13.311-21.734-10.138l-15.215,5.538c-0.137,0.051-0.273,0.094-0.41,0.154
			L175.52,446.72c-2.922,1-5.075,3.5-5.631,6.538s0.573,6.139,2.952,8.108c2.378,1.97,5.635,2.5,8.516,1.388l103.646-37.794
			c0.243-0.075,0.483-0.164,0.717-0.265l14.293-5.214l2.884,7.919c1.046,2.864,3.54,4.953,6.543,5.48
			c3.003,0.527,6.059-0.589,8.017-2.927c1.958-2.338,2.519-5.542,1.474-8.406L316.03,413.619z"/>
	</g>
</g>
<g>
</g>
<g>
</g>
<g>
</g>
<g>
</g>
<g>
</g>
<g>
</g>
<g>
</g>
<g>
</g>
<g>
</g>
<g>
</g>
<g>
</g>
<g>
</g>
<g>
</g>
<g>
</g>
<g>
</g>
</svg>
